# Blender 4.2.3 LTS
# www.blender.org
o Rock
v 0.006144 0.364480 -7.974623
v -0.558597 -0.330911 -7.888194
v 1.016898 0.032227 -8.090463
v 1.267745 0.301705 -7.857744
v 1.549693 -0.134759 -7.855276
v 0.179819 -0.647162 -7.516856
v 0.551877 0.527848 -7.322756
v 1.854709 0.161295 -7.205445
v -0.010398 -0.544473 -6.883751
v 1.579887 0.344030 -7.260239
v 1.955461 -0.094978 -7.354443
v 0.048273 0.590914 -6.245651
v 1.563299 -0.438027 -7.280331
v 0.990717 -0.549441 -7.598178
v 1.687298 -0.134185 -6.964990
v 1.038111 0.460611 -6.689507
v 1.210005 0.262359 -6.573477
v 1.063631 -0.046797 -6.397749
v 0.651506 -0.579665 -6.935149
v 0.793648 -0.399052 -6.414188
v 0.165874 -0.666270 -6.609042
v 0.789108 -0.593005 -6.035966
v 0.524608 0.440324 -5.092534
v 0.691996 -0.275253 -5.421250
v 0.647824 -0.592295 -6.369935
v 0.500795 0.200318 -4.527319
v 0.622031 -0.046889 -4.633223
v 0.364963 -0.362141 -5.052634
v 0.120019 0.329698 -4.662306
v 0.243215 0.051199 -4.506433
v 0.599396 -0.377968 -5.664412
v 0.582672 -0.634418 -5.925335
v -0.164409 -0.324581 -5.577849
v 0.207865 -0.623932 -5.965985
v 0.010877 0.456908 -5.100900
v -0.407203 -0.069247 -5.637583
v -0.409922 0.465618 -6.081216
v -0.224783 -0.816253 -6.124452
v -0.572558 0.214855 -6.000663
v -0.794433 -0.124026 -5.905558
v -0.599498 -0.440868 -5.876222
v -1.041738 -0.080230 -6.330139
v -0.940049 -0.599477 -6.425524
v -1.410124 0.459374 -6.600337
v -1.167604 -0.355752 -6.767483
v -1.903963 0.217253 -7.002300
v -0.809354 -0.711258 -6.770504
v -1.958850 0.208151 -7.497640
v -1.083653 -0.445655 -7.131815
v -1.409536 0.539914 -6.841104
v -1.793724 0.478644 -7.172464
v -1.516994 0.342471 -8.020795
v -1.590101 0.031039 -8.014399
v -1.557977 -0.120833 -7.674915
v -0.301879 -0.718669 -6.614416
v -0.888794 0.023234 -8.350531
v -0.666338 0.416726 -8.220100
v -0.596314 -0.549363 -7.306641
v -0.083998 0.027120 -8.141792
vn 0.0752 0.9506 -0.3012
vn 0.0397 -0.6120 -0.7898
vn 0.5662 0.7469 -0.3487
vn -0.0761 -0.9815 0.1756
vn 0.1833 0.9692 -0.1644
vn -0.0775 -0.9289 -0.3621
vn 0.8239 -0.0056 0.5667
vn 0.5095 -0.7110 0.4847
vn 0.4396 -0.8790 0.1848
vn 0.5390 0.7216 0.4345
vn 0.6770 0.0943 0.7299
vn 0.7973 -0.6035 -0.0083
vn 0.9093 0.3484 0.2276
vn 0.1581 0.9854 0.0634
vn 0.7243 -0.6170 -0.3077
vn 0.0301 0.9927 0.1172
vn -0.1556 -0.8873 0.4341
vn 0.0266 0.9618 0.2723
vn 0.1601 -0.9846 -0.0698
vn 0.5279 -0.8021 0.2793
vn 0.2383 -0.2814 0.9296
vn -0.0173 -0.9952 -0.0968
vn 0.1237 -0.9907 0.0571
vn -0.0698 -0.9976 -0.0010
vn -0.0958 -0.7068 0.7009
vn -0.4987 -0.7410 0.4496
vn 0.0894 -0.7454 0.6606
vn -0.6951 -0.5536 0.4586
vn -0.4926 -0.2753 0.8256
vn -0.2267 0.9682 0.1059
vn -0.7627 0.5452 0.3479
vn -0.5313 0.5327 0.6588
vn -0.4348 -0.7568 0.4881
vn 0.1112 -0.9712 -0.2109
vn -0.8473 -0.2518 0.4676
vn -0.1680 0.9350 0.3124
vn -0.7041 -0.7092 -0.0369
vn -0.6214 -0.0322 0.7828
vn -0.7043 -0.7098 0.0129
vn -0.3904 0.8734 0.2912
vn -0.6231 -0.7806 0.0491
vn -0.3231 -0.8628 -0.3889
vn -0.8949 0.4368 0.0911
vn -0.6776 -0.6931 -0.2460
vn -0.7739 0.1691 -0.6102
vn 0.1041 -0.8827 -0.4582
vn -0.2965 -0.9112 -0.2860
vn -0.5955 0.7398 -0.3130
vn 0.2436 -0.9131 -0.3269
vn -0.2750 -0.8480 -0.4532
vn 0.1787 -0.7153 -0.6755
vn -0.2111 -0.9105 -0.3557
vn 0.6203 0.5620 -0.5472
vn 0.0399 0.4351 -0.8995
vn -0.0356 0.9965 -0.0750
vn 0.1035 0.5932 -0.7984
vn 0.0513 -0.6465 -0.7612
vn 0.0216 -0.7395 -0.6728
vn 0.1310 -0.6439 -0.7538
vn 0.4615 0.2934 -0.8372
vn 0.5608 -0.7268 -0.3966
vn -0.0470 -0.9960 0.0766
vn 0.7596 0.5865 0.2811
vn 0.1778 0.9835 -0.0321
vn 0.1213 -0.9925 0.0168
vn 0.1322 0.9912 0.0038
vn 0.4876 0.8217 0.2950
vn 0.6486 -0.6593 0.3802
vn 0.7035 0.1641 0.6915
vn 0.1117 -0.9833 0.1435
vn 0.5606 -0.4617 0.6875
vn 0.1618 -0.9866 -0.0210
vn 0.8534 -0.4755 0.2136
vn 0.9154 -0.2575 0.3095
vn -0.8886 0.0635 0.4544
vn 0.9866 0.1399 0.0836
vn 0.4518 -0.8704 0.1956
vn 0.4564 -0.6490 0.6087
vn 0.1687 0.9047 0.3913
vn -0.1721 0.4220 0.8901
vn -0.0049 -0.7979 0.6027
vn 0.0154 -0.7846 0.6199
vn -0.5798 0.0121 0.8147
vn 0.3953 -0.9179 0.0346
vn -0.2655 -0.7020 0.6608
vn -0.7428 0.5859 0.3241
vn -0.5271 -0.2490 0.8125
vn -0.1528 0.9437 0.2933
vn -0.2258 -0.9616 -0.1560
vn -0.6807 0.5736 0.4557
vn -0.7257 -0.3943 0.5638
vn -0.6103 -0.7879 0.0821
vn -0.6177 -0.5730 0.5387
vn -0.8786 -0.2471 0.4086
vn -0.0979 -0.9570 0.2730
vn -0.6652 0.5837 0.4657
vn 0.0012 0.9961 -0.0883
vn 0.0671 -0.9622 -0.2639
vn -0.2642 -0.8971 -0.3541
vn -0.2415 0.4256 -0.8721
vn -0.1313 0.9712 -0.1987
vn 0.3456 0.3409 -0.8743
vn -0.1946 -0.9021 -0.3851
vn 0.2165 0.8888 -0.4040
vn 0.7085 0.4546 -0.5397
vn 0.3987 -0.8072 -0.4352
vn 0.6678 0.7099 0.2237
vn 0.7805 -0.6055 0.1554
vn -0.8582 -0.0976 0.5039
vn -0.4001 0.5051 0.7647
vn -0.6197 -0.7813 0.0739
vn -0.0558 0.9914 -0.1186
vn -0.4300 0.0825 -0.8991
vn 0.2463 0.1766 -0.9530
vt 0.705939 0.080192
vt 0.599366 0.124226
vt 0.545471 0.015479
vt 0.287252 0.120920
vt 0.396752 0.224105
vt 0.212076 0.108542
vt 0.470292 0.068111
vt 0.433028 0.058309
vt 0.252509 0.215785
vt 0.250605 0.316978
vt 0.154553 0.167369
vt 0.177884 0.263015
vt 0.170620 0.308265
vt 0.712881 0.498602
vt 0.673081 0.539019
vt 0.677570 0.474555
vt 0.631353 0.511119
vt 0.638820 0.666292
vt 0.344646 0.278539
vt 0.221093 0.381416
vt 0.500534 0.170746
vt 0.471869 0.174889
vt 0.728352 0.617466
vt 0.686572 0.648839
vt 0.025897 0.596610
vt 0.000000 0.612667
vt 0.000000 0.545960
vt 0.723498 0.907293
vt 0.689455 0.886872
vt 0.593093 0.286058
vt 0.462645 0.396558
vt 0.185228 0.421993
vt 0.200130 0.375010
vt 0.525504 0.427701
vt 0.124041 0.473377
vt 0.134911 0.441155
vt 0.484428 0.474556
vt 0.153655 0.415454
vt 0.049440 0.545960
vt 0.056716 0.483158
vt 0.703508 0.927906
vt 0.118547 0.377809
vt 0.048714 0.381560
vt 0.048723 0.545960
vt 0.048723 0.619599
vt 0.025897 0.587151
vt 0.544672 0.935191
vt 0.478725 0.978027
vt 0.539226 0.833439
vt 0.085817 0.324990
vt 0.501885 0.804729
vt 0.552546 0.763105
vt 0.637994 0.335277
vt 0.429439 0.897072
vt 0.466520 0.753083
vt 0.441624 0.950933
vt 0.507213 0.741878
vt 0.576891 0.676664
vt 0.612846 0.773552
vt 0.122134 0.266639
vt 0.503864 0.676511
vt 0.807030 0.305589
vt 0.791787 0.335152
vt 0.040564 0.228079
vt 0.049695 0.170070
vt 0.083464 0.205330
vt 0.429439 0.615052
vt 0.460362 0.528952
vt 0.089687 0.140941
vt 0.874211 0.289809
vt 0.000000 0.074405
vt 0.429483 0.522271
vt 0.468268 0.474556
vt 0.091869 0.039411
vt 0.038014 0.018586
vt 0.120088 0.000000
vt 0.803466 0.890929
vt 0.795084 0.799687
vt 0.837169 0.810153
vt 0.755487 0.896659
vt 0.222337 0.027850
vt 0.509919 0.000000
vt 0.429439 0.035055
vt 0.768857 0.633834
vt 0.801780 0.514244
vt 0.819848 0.632638
vt 0.803008 0.092408
vt 0.755487 0.503146
vt 0.429439 0.297475
vt 0.809132 0.474555
vt 0.376958 0.361069
vt 0.427579 0.384759
vt 0.755487 0.838786
vt 0.657156 0.789817
vt 0.612846 0.711403
vt 0.048723 0.609932
vt 0.048723 0.545960
vt 0.066239 0.588204
vt 0.429439 0.467589
vt 0.463034 1.000000
vt 0.000000 0.524297
vt 0.436538 0.760217
vt 0.545658 0.621312
vt 0.838234 0.705667
vt 0.779015 0.688917
vt 0.893451 0.170251
vt 0.755488 0.615413
s 0
f 1/1/1 7/2/1 4/3/1
f 59/4/2 3/5/2 2/6/2
f 4/3/3 10/7/3 8/8/3
f 6/9/4 19/10/4 58/11/4
f 4/3/5 7/2/5 10/7/5
f 9/12/6 19/10/6 21/13/6
f 8/14/7 15/15/7 11/16/7
f 13/17/8 15/15/8 20/18/8
f 14/19/9 20/20/9 19/10/9
f 16/21/10 17/22/10 8/8/10
f 17/23/11 18/24/11 15/15/11
f 20/25/12 25/26/12 19/27/12
f 18/24/13 26/28/13 27/29/13
f 16/21/14 12/30/14 23/31/14
f 20/20/15 22/32/15 25/33/15
f 23/31/16 12/30/16 35/34/16
f 24/35/17 31/36/17 22/32/17
f 23/31/18 35/34/18 29/37/18
f 22/32/19 32/38/19 25/33/19
f 27/39/20 28/40/20 24/35/20
f 26/28/21 30/41/21 27/29/21
f 25/33/22 32/38/22 34/42/22
f 25/33/23 34/42/23 21/13/23
f 28/40/24 33/43/24 31/36/24
f 31/44/25 34/45/25 32/46/25
f 28/47/26 30/48/26 33/49/26
f 34/42/27 33/43/27 38/50/27
f 33/49/28 30/48/28 36/51/28
f 36/51/29 41/52/29 33/49/29
f 12/30/30 37/53/30 35/34/30
f 35/54/31 39/55/31 29/56/31
f 36/51/32 39/55/32 40/57/32
f 41/52/33 43/58/33 38/59/33
f 21/13/34 38/50/34 55/60/34
f 40/57/35 42/61/35 43/58/35
f 37/53/36 50/62/36 44/63/36
f 43/64/37 45/65/37 47/66/37
f 44/67/38 46/68/38 42/61/38
f 45/65/39 49/69/39 47/66/39
f 44/63/40 50/62/40 51/70/40
f 46/71/41 49/69/41 45/65/41
f 49/69/42 58/11/42 47/66/42
f 46/68/43 51/72/43 48/73/43
f 54/74/44 48/75/44 53/76/44
f 48/77/45 52/78/45 53/79/45
f 21/13/46 55/60/46 9/12/46
f 54/74/47 58/11/47 49/69/47
f 51/80/48 52/78/48 48/77/48
f 55/60/49 58/11/49 9/12/49
f 54/74/50 56/81/50 2/6/50
f 56/81/51 59/4/51 2/6/51
f 58/11/52 2/6/52 6/9/52
f 5/82/53 8/8/53 11/83/53
f 1/84/54 3/85/54 59/86/54
f 57/87/55 12/30/55 7/2/55
f 1/84/56 4/88/56 3/85/56
f 2/6/57 3/5/57 14/19/57
f 2/6/58 14/19/58 6/9/58
f 3/5/59 5/89/59 14/19/59
f 3/85/60 4/88/60 5/90/60
f 13/91/61 5/89/61 11/92/61
f 9/12/62 58/11/62 19/10/62
f 17/23/63 23/93/63 26/28/63
f 10/7/64 7/2/64 16/21/64
f 6/9/65 14/19/65 19/10/65
f 7/2/66 12/30/66 16/21/66
f 10/7/67 16/21/67 8/8/67
f 13/17/68 11/16/68 15/15/68
f 8/14/69 17/23/69 15/15/69
f 14/19/70 13/91/70 20/20/70
f 20/18/71 15/15/71 18/24/71
f 19/10/72 25/33/72 21/13/72
f 24/94/73 18/24/73 27/29/73
f 17/23/74 26/28/74 18/24/74
f 36/51/75 29/56/75 39/55/75
f 20/18/76 24/94/76 22/95/76
f 24/35/77 28/40/77 31/36/77
f 22/96/78 31/97/78 32/98/78
f 26/99/79 23/31/79 29/37/79
f 26/100/80 29/56/80 30/48/80
f 27/39/81 30/101/81 28/40/81
f 31/36/82 33/43/82 34/42/82
f 39/55/83 44/67/83 42/61/83
f 21/13/84 34/42/84 38/50/84
f 33/49/85 41/52/85 38/59/85
f 35/54/86 37/102/86 39/55/86
f 36/51/87 40/57/87 41/52/87
f 12/30/88 50/62/88 37/53/88
f 38/50/89 43/64/89 55/60/89
f 40/57/90 39/55/90 42/61/90
f 41/52/91 40/57/91 43/58/91
f 54/74/92 46/71/92 48/75/92
f 42/61/93 46/68/93 45/103/93
f 43/58/94 42/61/94 45/103/94
f 43/64/95 47/66/95 55/60/95
f 46/68/96 44/67/96 51/72/96
f 57/87/97 50/62/97 12/30/97
f 47/66/98 58/11/98 55/60/98
f 58/11/99 54/74/99 2/6/99
f 56/104/100 52/78/100 57/105/100
f 52/106/101 51/70/101 57/87/101
f 59/86/102 57/105/102 1/84/102
f 54/74/103 53/76/103 56/81/103
f 1/1/104 57/87/104 7/2/104
f 5/82/105 4/3/105 8/8/105
f 13/91/106 14/19/106 5/89/106
f 17/23/107 16/107/107 23/93/107
f 24/94/108 20/18/108 18/24/108
f 36/51/109 30/48/109 29/56/109
f 39/55/110 37/102/110 44/67/110
f 54/74/111 49/69/111 46/71/111
f 57/87/112 51/70/112 50/62/112
f 56/104/113 53/79/113 52/78/113
f 59/86/114 56/104/114 57/105/114
