# Blender 4.2.3 LTS
# www.blender.org
o Rock3
v -0.049020 0.668157 -1.673019
v 0.366834 1.507372 -1.164204
v 0.289371 0.460279 -1.543025
v 0.324320 0.024178 -1.297117
v 0.418353 -0.665247 -1.615799
v 0.044226 -1.581904 -0.498901
v 0.971055 1.361370 -1.119875
v 0.960973 0.385470 -0.473415
v 1.131085 -0.888440 -0.832446
v 1.628444 -0.476027 -0.616524
v -0.017827 2.101512 0.134586
v 1.019066 1.815064 -0.686412
v 1.459967 1.100337 -0.586702
v 1.734147 -0.652110 -0.257417
v 0.943099 -1.126205 -0.201954
v 1.774979 -0.356057 0.080425
v 1.596892 0.111502 0.122591
v 1.038578 -1.100156 0.141561
v 0.552132 2.052909 -0.099225
v 1.323993 -0.143158 0.405709
v 1.609589 0.710318 0.323837
v 1.824965 0.451613 0.471635
v 0.272165 -0.843023 0.772719
v 1.719147 0.230970 0.713326
v 1.480660 1.131193 0.221101
v 1.081414 0.468325 1.059703
v 0.180306 -0.437489 1.246862
v 0.455587 -1.893683 0.602173
v 0.248144 -2.222191 0.319866
v 0.519321 1.351709 1.312540
v 0.406449 -0.028468 1.193458
v 0.083847 1.834019 0.867343
v 0.549560 0.923632 1.521968
v 0.019638 -1.167022 1.068084
v -0.014301 0.113822 1.220266
v -0.029115 1.310510 1.371405
v 0.037266 -2.100501 0.599376
v -0.531887 -0.855403 1.508115
v -0.499848 -1.214416 1.460246
v -0.290745 -1.274440 1.074752
v -0.646537 0.363145 0.695920
v -2.067966 -0.671019 0.515970
v -0.980398 1.066068 0.252999
v -2.143705 -0.202028 -0.134259
v -1.616072 -1.335274 0.654107
v -0.835525 -1.729633 0.407792
v -1.121897 0.544500 -0.174221
v -1.654775 -1.232671 -0.187736
v -1.146148 -1.678219 0.122940
v -1.788373 -0.273476 -0.530533
v -0.451287 1.847867 0.338726
v -0.673560 -1.362049 -0.349831
v -0.796698 1.420537 -0.149697
v -0.887400 0.667206 -0.596361
v -0.843336 0.123948 -1.037746
v -0.017992 -2.169445 0.266913
v -0.469824 -0.143200 -1.178053
v 0.006011 -0.814827 -1.607820
v 0.173197 -1.362684 -1.302092
vn 0.5676 -0.4953 -0.6576
vn -0.1040 0.8924 -0.4390
vn 0.7822 -0.3496 -0.5156
vn 0.5432 0.5291 -0.6519
vn 0.5099 -0.6114 -0.6051
vn -0.0355 -0.7915 -0.6101
vn 0.7645 0.4012 -0.5046
vn 0.6746 -0.5647 -0.4754
vn 0.8968 0.3642 -0.2512
vn 0.7915 -0.5855 -0.1756
vn 0.6480 0.7292 0.2199
vn 0.6517 -0.6077 0.4538
vn 0.7137 0.2129 -0.6674
vn 0.6282 0.1708 0.7591
vn 0.6853 -0.7283 0.0055
vn 0.8631 -0.4990 -0.0777
vn 0.5147 -0.3673 0.7747
vn 0.2064 0.9280 0.3101
vn 0.6326 -0.0153 0.7743
vn 0.4549 0.6961 0.5554
vn 0.6957 0.3642 0.6191
vn 0.7943 -0.3770 0.4763
vn 0.3561 -0.7282 0.5857
vn 0.4242 -0.3517 0.8345
vn 0.5393 0.7800 0.3174
vn -0.2337 -0.9436 0.2345
vn 0.0257 0.6905 0.7229
vn 0.5903 -0.3124 0.7443
vn 0.3168 -0.8960 0.3113
vn 0.1711 -0.4395 0.8818
vn -0.3369 0.8684 0.3638
vn -0.6586 -0.1023 0.7455
vn -0.4486 0.4661 0.7626
vn -0.7302 0.4365 0.5256
vn -0.7655 0.0410 0.6421
vn -0.4001 -0.5713 0.7167
vn -0.4247 -0.8698 0.2510
vn -0.4386 0.4695 0.7663
vn -0.1712 -0.7430 0.6470
vn -0.8812 -0.1326 0.4538
vn -0.6349 -0.7699 -0.0646
vn -0.8289 0.5494 0.1055
vn -0.4129 -0.8618 0.2947
vn -0.5632 0.4931 -0.6631
vn -0.2295 -0.7192 -0.6558
vn -0.4271 -0.1270 -0.8952
vn -0.3829 -0.3577 -0.8517
vn -0.2057 -0.5263 -0.8251
vn -0.8108 -0.2301 -0.5381
vn -0.4725 0.7401 -0.4785
vn -0.2157 0.3853 -0.8972
vn 0.0346 -0.4888 -0.8717
vn 0.4977 -0.8537 -0.1531
vn 0.4837 0.2659 -0.8339
vn 0.1475 0.3268 -0.9335
vn 0.8529 0.5203 -0.0417
vn 0.2129 0.6631 -0.7176
vn 0.6210 -0.3943 -0.6774
vn 0.8162 -0.2328 -0.5288
vn 0.4907 -0.8535 -0.1756
vn 0.5408 0.4126 -0.7330
vn 0.5200 -0.4754 -0.7096
vn 0.7351 -0.5710 -0.3654
vn 0.4975 -0.8502 -0.1723
vn 0.6714 0.5938 -0.4434
vn 0.9667 0.1227 -0.2244
vn 0.7150 0.2062 -0.6681
vn 0.8612 -0.2917 0.4163
vn 0.5086 -0.8576 -0.0763
vn 0.8205 -0.5686 0.0588
vn 0.4297 -0.3571 0.8294
vn 0.5567 0.7104 0.4306
vn 0.5472 -0.4536 0.7034
vn 0.5499 0.4828 0.6815
vn 0.3435 -0.7857 0.5144
vn 0.7636 0.3265 0.5570
vn 0.3777 -0.2752 0.8841
vn 0.2673 0.1404 0.9533
vn 0.2095 -0.4356 0.8754
vn -0.0477 -0.3194 0.9464
vn 0.0902 0.0797 0.9927
vn 0.0628 0.4422 0.8947
vn -0.3258 -0.1224 0.9375
vn -0.5483 -0.2044 0.8109
vn -0.5284 0.6453 0.5518
vn -0.4787 0.6847 0.5496
vn -0.0030 -0.9883 0.1523
vn -0.8902 -0.4123 -0.1937
vn -0.7143 0.6700 -0.2020
vn -0.3740 -0.8941 0.2464
vn -0.7338 -0.3169 -0.6009
vn -0.9299 0.3485 -0.1175
vn -0.8625 0.3309 -0.3829
vn -0.2055 -0.6940 -0.6901
vn -0.7237 0.3989 -0.5632
vn -0.3460 -0.7306 -0.5886
vn -0.3356 -0.8937 -0.2978
vn -0.5773 0.7717 -0.2669
vn -0.6413 -0.5137 -0.5699
vn -0.6030 0.4593 -0.6522
vn -0.6274 0.6068 -0.4880
vn -0.4931 -0.2522 -0.8326
vn 0.1454 -0.4479 -0.8822
vn -0.0206 -0.5129 -0.8582
vn -0.1763 0.4389 -0.8811
vn -0.0987 0.8925 -0.4400
vn 0.9579 0.2848 -0.0354
vn 0.7474 0.0227 0.6639
vn 0.7446 0.3036 0.5945
vn 0.3880 -0.0877 0.9175
vn -0.5668 -0.1584 0.8085
vn -0.5616 0.6934 0.4514
vn -0.8234 -0.5666 -0.0312
vn -0.5004 0.6546 -0.5667
vt 0.340230 0.524961
vt 0.394702 0.438839
vt 0.488941 0.538863
vt 0.059269 0.721148
vt 0.134265 0.840698
vt 0.000000 0.755980
vt 0.855467 0.163911
vt 0.999340 0.134517
vt 0.940207 0.284303
vt 0.850844 0.723131
vt 0.825232 0.589634
vt 0.962512 0.570579
vt 0.349027 0.621008
vt 0.482859 0.619039
vt 0.366685 0.755152
vt 0.340230 0.743867
vt 0.194855 0.789085
vt 0.140822 0.730324
vt 0.238422 0.721346
vt 0.575203 0.529779
vt 0.591105 0.580178
vt 0.871024 0.499709
vt 0.930833 0.505702
vt 0.509531 0.651348
vt 0.000000 0.646333
vt 0.023569 0.550058
vt 0.135085 0.667418
vt 0.750594 0.825238
vt 0.704790 0.790199
vt 0.802685 0.763244
vt 0.805159 0.458280
vt 0.839094 0.438838
vt 0.652511 0.322507
vt 0.709373 0.335055
vt 0.652511 0.385709
vt 0.269918 0.631310
vt 0.317667 0.583644
vt 0.317667 0.661130
vt 0.276190 0.571092
vt 0.706605 0.714811
vt 0.805159 0.636832
vt 0.040878 0.478384
vt 0.122831 0.454029
vt 0.386021 0.875983
vt 0.466205 0.976422
vt 0.340230 0.998936
vt 0.185162 0.696305
vt 0.269918 0.611374
vt 0.221197 0.721148
vt 0.342139 0.807491
vt 0.389942 0.812811
vt 0.687676 0.302774
vt 0.735561 0.277836
vt 0.744561 0.322507
vt 0.643509 0.614358
vt 0.628621 0.508030
vt 0.717290 0.573463
vt 0.202514 0.492194
vt 0.769524 0.298184
vt 0.493580 0.020894
vt 0.422435 0.082503
vt 0.401334 0.028947
vt 0.446816 0.859560
vt 0.495645 0.793858
vt 0.671718 0.118088
vt 0.685859 0.165387
vt 0.653357 0.187363
vt 0.589702 -0.000000
vt 0.579751 0.063615
vt 0.385869 0.188451
vt 0.487006 0.218599
vt 0.340230 0.325166
vt 0.583189 0.181422
vt 0.808679 0.186648
vt 0.537208 0.438839
vt 0.838783 0.074709
vt 0.614128 0.238055
vt 0.117610 0.439265
vt 0.135486 0.358678
vt 0.206891 0.397361
vt 0.632269 0.129573
vt 0.855467 0.173009
vt 0.269918 0.439265
vt 0.334946 0.500587
vt 0.269918 0.571092
vt 0.340230 0.395513
vt 0.112017 0.137128
vt 0.172334 0.128254
vt 0.050425 0.258444
vt 0.235031 0.308017
vt 0.288006 0.121175
vt 0.010287 0.885481
vt 0.805159 0.803369
vt 0.938239 0.765418
vt 0.922537 0.322762
vt 1.000000 0.270851
vt 0.196829 0.960112
vt 0.238422 0.930957
vt 0.077575 0.721148
vt 0.901664 0.079448
vt 1.000000 0.000000
vt 0.628621 0.589540
vt 0.420881 0.757512
vt 0.263033 0.707526
vt 0.628621 0.710107
vt 0.262187 0.505129
vt 0.466700 0.762910
vt 0.340230 0.757512
vt 0.743746 0.523456
vt 0.215725 0.439265
vt 0.669609 0.438839
vt 0.652511 0.089356
vt 0.855467 0.000000
vt 0.631812 0.397998
vt 0.025069 0.395696
vt 0.000000 0.304610
vt 0.652511 0.369362
vt 0.652511 0.202490
vt 0.318405 0.966309
vt 0.238422 0.909322
vt 0.318405 0.903473
vt 0.043581 0.134918
vt 0.152420 0.000000
vt 0.320207 0.278234
vt 0.340230 0.183801
vt 0.297649 0.721148
vt 0.088908 0.965524
vt 0.343388 0.449079
vt 0.228000 0.066664
vt 0.922942 0.813380
s 0
f 59/1/1 5/2/1 9/3/1
f 19/4/2 2/5/2 11/6/2
f 7/7/3 8/8/3 3/9/3
f 4/10/4 8/11/4 10/12/4
f 6/13/5 15/14/5 29/15/5
f 56/16/6 6/13/6 29/15/6
f 7/17/7 12/18/7 13/19/7
f 10/20/8 14/21/8 9/3/8
f 10/12/9 17/22/9 16/23/9
f 15/14/10 18/24/10 29/15/10
f 12/25/11 19/26/11 25/27/11
f 14/28/12 16/29/12 18/30/12
f 8/11/13 21/31/13 22/32/13
f 17/33/14 20/34/14 16/35/14
f 17/36/15 24/37/15 20/38/15
f 22/39/16 24/37/16 17/36/16
f 18/30/17 20/40/17 23/41/17
f 19/26/18 11/42/18 32/43/18
f 23/44/19 28/45/19 18/46/19
f 21/47/20 26/48/20 22/49/20
f 25/27/21 26/48/21 21/47/21
f 31/50/22 27/51/22 23/44/22
f 28/52/23 37/53/23 29/54/23
f 26/55/24 33/56/24 31/57/24
f 32/43/25 30/58/25 25/27/25
f 56/59/26 29/54/26 37/53/26
f 32/60/27 36/61/27 30/62/27
f 34/63/28 27/51/28 39/64/28
f 39/65/29 40/66/29 34/67/29
f 34/67/30 40/66/30 37/53/30
f 32/60/31 11/68/31 51/69/31
f 35/70/32 36/61/32 41/71/32
f 35/70/33 41/71/33 38/72/33
f 51/69/34 43/73/34 36/61/34
f 36/61/35 43/73/35 41/71/35
f 40/66/36 46/74/36 37/53/36
f 56/59/37 37/53/37 46/74/37
f 41/71/38 42/75/38 38/72/38
f 45/76/39 46/74/39 40/66/39
f 41/71/40 43/73/40 47/77/40
f 45/78/41 48/79/41 49/80/41
f 43/73/42 51/69/42 53/81/42
f 46/74/43 49/82/43 56/59/43
f 54/83/44 55/84/44 50/85/44
f 49/80/45 48/79/45 56/86/45
f 55/87/46 57/88/46 50/89/46
f 50/89/47 57/88/47 48/79/47
f 57/88/48 52/90/48 48/79/48
f 57/88/49 58/91/49 52/90/49
f 53/92/50 11/6/50 2/5/50
f 57/93/51 4/10/51 5/94/51
f 1/95/52 3/9/52 4/96/52
f 59/1/53 9/3/53 6/13/53
f 1/97/54 2/5/54 3/98/54
f 2/5/55 7/17/55 3/98/55
f 25/27/56 13/99/56 12/25/56
f 2/5/57 12/18/57 7/17/57
f 5/2/58 10/20/58 9/3/58
f 4/96/59 3/9/59 8/8/59
f 6/13/60 9/3/60 15/14/60
f 5/94/61 4/10/61 10/12/61
f 7/7/62 13/100/62 8/8/62
f 8/8/63 13/100/63 21/101/63
f 15/14/64 9/3/64 14/21/64
f 10/12/65 8/11/65 17/22/65
f 10/20/66 16/102/66 14/21/66
f 17/22/67 8/11/67 22/32/67
f 34/63/68 23/44/68 27/51/68
f 15/14/69 14/21/69 18/24/69
f 29/15/70 18/24/70 28/103/70
f 18/30/71 16/29/71 20/40/71
f 19/26/72 32/43/72 25/27/72
f 23/41/73 20/40/73 31/57/73
f 24/104/74 22/49/74 26/48/74
f 20/40/75 24/105/75 31/57/75
f 26/48/76 30/58/76 33/106/76
f 31/57/77 24/105/77 26/55/77
f 38/107/78 27/51/78 35/108/78
f 28/52/79 34/67/79 37/53/79
f 31/57/80 33/56/80 35/109/80
f 27/51/81 31/50/81 35/108/81
f 30/58/82 36/110/82 33/106/82
f 35/109/83 33/56/83 36/111/83
f 45/76/84 38/112/84 42/113/84
f 32/60/85 51/69/85 36/61/85
f 42/75/86 47/77/86 44/114/86
f 40/66/87 39/65/87 45/76/87
f 48/79/88 42/115/88 44/116/88
f 50/117/89 47/77/89 54/118/89
f 46/74/90 45/76/90 49/82/90
f 44/116/91 50/89/91 48/79/91
f 47/77/92 43/73/92 53/81/92
f 47/119/93 53/120/93 54/121/93
f 56/86/94 48/79/94 52/90/94
f 55/87/95 54/122/95 1/123/95
f 56/86/96 52/90/96 6/124/96
f 52/90/97 59/125/97 6/124/97
f 53/81/98 51/69/98 11/68/98
f 52/90/99 58/91/99 59/125/99
f 54/121/100 53/120/100 2/126/100
f 1/97/101 54/127/101 2/5/101
f 55/87/102 1/123/102 57/88/102
f 58/128/103 5/2/103 59/1/103
f 57/88/104 1/123/104 4/129/104
f 58/130/105 57/93/105 5/94/105
f 19/4/106 12/18/106 2/5/106
f 25/27/107 21/47/107 13/99/107
f 34/63/108 28/45/108 23/44/108
f 26/48/109 25/27/109 30/58/109
f 38/107/110 39/64/110 27/51/110
f 45/76/111 39/65/111 38/112/111
f 42/75/112 41/71/112 47/77/112
f 48/79/113 45/78/113 42/115/113
f 50/117/114 44/114/114 47/77/114
