# Blender 4.2.3 LTS
# www.blender.org
o Rock2
v 6.533836 -0.124146 -1.430303
v 6.676718 0.410396 -1.396871
v 6.941367 0.646562 -1.505955
v 6.648052 -0.489703 -1.254486
v 7.240751 -1.114457 -1.054039
v 7.541227 -0.875743 -1.174211
v 6.996971 0.940001 -1.411968
v 7.301859 0.571355 -1.437756
v 7.606839 -1.147432 -0.913996
v 6.937535 1.796298 0.072873
v 7.419302 1.153264 0.020646
v 7.924851 0.634872 -0.398851
v 8.235540 0.077439 -0.532381
v 8.264295 -0.227872 -0.348400
v 7.004143 -1.542076 -0.468554
v 8.400373 0.145182 0.341834
v 8.383727 -0.204631 0.341353
v 7.406059 -1.379311 -0.279030
v 7.729863 -0.823061 0.330523
v 8.105644 0.563660 0.343401
v 8.110683 -0.192772 0.792143
v 7.222151 -1.827704 0.153592
v 7.746716 0.598371 0.790498
v 7.804161 -0.391497 0.865250
v 7.016994 -1.078986 1.239901
v 6.987061 -0.662498 1.392691
v 7.222254 0.875485 1.122837
v 6.705361 -0.023377 1.294144
v 7.233468 1.143666 0.596428
v 6.967184 -1.956839 0.295088
v 6.333927 -0.790732 1.400586
v 6.882681 1.157036 0.789844
v 6.259093 0.078726 1.292987
v 6.857694 -2.034102 0.001849
v 6.259624 1.094831 0.779175
v 5.658521 -0.545645 0.854906
v 6.635208 -1.886547 0.247036
v 5.255775 0.074248 0.445279
v 5.260227 -0.447808 0.178201
v 6.030434 1.846124 0.348596
v 5.777349 -0.848492 0.446431
v 6.603315 2.028064 0.287767
v 5.108985 0.214785 -0.177371
v 5.073706 -0.168694 -0.312377
v 5.357108 -0.492348 -0.367918
v 5.936860 -0.875075 -0.073805
v 6.052936 1.936956 -0.101979
v 5.410439 0.208028 -0.640844
v 6.618301 1.907570 -0.196417
v 5.856823 -0.330073 -0.821510
v 5.454493 0.729587 -0.141012
v 5.910468 0.209487 -0.922793
v 6.754992 1.681005 -0.344028
v 6.354398 0.915161 -0.730196
v 6.031102 0.077078 -1.348145
v 6.336403 -0.876168 -0.516402
v 6.510502 0.733132 -1.197488
v 6.074245 -0.407954 -1.161229
v 6.534790 -1.847762 -0.135499
vn 0.6776 -0.1359 -0.7228
vn -0.2660 -0.1423 -0.9534
vn 0.4819 0.7673 -0.4232
vn 0.1529 -0.1525 -0.9764
vn 0.4414 -0.8788 -0.1813
vn 0.8159 -0.2401 -0.5260
vn 0.8203 -0.2797 -0.4988
vn 0.6738 0.7330 -0.0938
vn 0.7862 -0.6125 0.0819
vn 0.8090 0.5703 -0.1423
vn 0.8318 -0.5517 0.0616
vn 0.8541 -0.0414 0.5184
vn 0.8952 -0.4393 -0.0747
vn 0.7824 0.5649 0.2620
vn 0.5558 -0.6830 0.4740
vn 0.6066 0.7031 0.3711
vn 0.6935 -0.5253 0.4931
vn -0.0166 0.1452 0.9893
vn 0.2757 0.8541 0.4410
vn -0.2455 -0.7037 0.6668
vn 0.0357 0.1672 0.9853
vn 0.0260 0.1250 0.9918
vn -0.6181 0.0439 0.7848
vn -0.3125 0.5441 0.7787
vn 0.6806 0.6208 0.3891
vn -0.0602 0.4505 0.8908
vn -0.6030 0.3602 0.7118
vn -0.5146 -0.8561 0.0483
vn -0.6433 0.0849 0.7609
vn -0.8506 -0.2452 0.4652
vn -0.0604 0.4824 0.8739
vn -0.5493 0.2830 0.7862
vn -0.9038 0.4030 0.1441
vn -0.8006 0.5157 0.3051
vn -0.2809 0.9434 0.1762
vn -0.5986 -0.8000 -0.0410
vn -0.7567 -0.6487 -0.0813
vn 0.4684 0.8606 -0.1997
vn -0.7157 0.5138 -0.4730
vn -0.5626 -0.1971 -0.8029
vn -0.3710 0.6587 -0.6546
vn 0.6065 0.6573 -0.4473
vn -0.8439 -0.0168 -0.5363
vn -0.9607 -0.1700 -0.2195
vn -0.1181 0.4946 -0.8611
vn -0.7311 0.5645 -0.3831
vn -0.7846 0.4423 -0.4344
vn -0.6670 0.5914 -0.4532
vn -0.3407 -0.4026 -0.8496
vn -0.2726 0.4001 -0.8750
vn -0.5210 0.6414 -0.5631
vn -0.1235 0.0948 -0.9878
vn -0.0790 -0.6765 -0.7322
vn -0.4983 0.3487 -0.7938
vn -0.5367 0.2259 -0.8130
vn -0.4456 -0.6276 -0.6384
vn 0.2311 0.2568 -0.9384
vn -0.0051 -0.2148 -0.9766
vn -0.0766 -0.3697 -0.9260
vn 0.7492 0.5863 -0.3081
vn 0.2212 -0.6462 -0.7304
vn 0.1353 -0.8254 -0.5481
vn 0.6913 -0.0172 -0.7223
vn 0.5630 0.7770 -0.2816
vn 0.9845 -0.0466 -0.1689
vn 0.5171 -0.6946 -0.5001
vn 0.6849 -0.7225 -0.0942
vn 0.8355 0.5129 -0.1973
vn -0.7515 -0.6464 0.1317
vn 0.6271 -0.6700 0.3974
vn 0.6981 0.4897 0.5224
vn 0.5822 0.7878 0.2010
vn 0.8414 -0.4717 0.2638
vn 0.6751 0.3120 0.6685
vn 0.4749 -0.8784 0.0541
vn 0.5842 0.6975 0.4149
vn 0.5983 -0.6025 0.5282
vn 0.1791 0.0844 0.9802
vn 0.3886 0.0918 0.9168
vn 0.5817 -0.2430 0.7763
vn 0.4875 -0.1154 0.8655
vn 0.4359 0.3217 0.8405
vn 0.0778 -0.3384 0.9378
vn -0.1557 -0.7362 0.6586
vn 0.6760 0.5900 -0.4415
vn -0.2410 -0.9125 0.3304
vn -0.6063 -0.6496 0.4587
vn 0.4191 0.5506 0.7220
vn -0.0632 0.4831 0.8733
vn -0.6767 -0.6718 0.3012
vn -0.2911 -0.3665 -0.8837
vn -0.9729 0.0081 0.2312
vn -0.9495 -0.1493 0.2760
vn -0.5073 -0.8545 -0.1119
vn -0.8354 -0.4989 -0.2307
vn -0.8957 0.4425 0.0445
vn -0.8076 0.2606 -0.5291
vn 0.0102 0.9704 -0.2412
vn -0.6863 -0.3826 -0.6186
vn -0.5594 -0.3619 -0.7457
vn -0.2444 -0.7959 -0.5540
vn -0.4877 -0.1140 -0.8655
vn -0.5188 -0.7163 -0.4666
vn -0.5403 0.5204 -0.6613
vn -0.5649 0.3048 -0.7668
vn -0.6522 -0.7144 -0.2536
vn -0.2027 -0.8297 -0.5201
vn 0.2175 0.6215 -0.7526
vn -0.5660 -0.6076 -0.5572
vn 0.9828 -0.0183 -0.1839
vn 0.5750 -0.6483 -0.4991
vn -0.7165 -0.6437 0.2688
vn 0.7217 0.5135 -0.4642
vn -0.2067 -0.4758 -0.8549
vt 0.326816 0.871130
vt 0.352289 0.792372
vt 0.352289 0.928375
vt 0.300573 0.055333
vt 0.341201 0.032814
vt 0.275941 0.180524
vt 0.621351 0.545747
vt 0.392875 0.462283
vt 0.574593 0.494472
vt 0.900904 0.000000
vt 0.910035 0.041359
vt 0.727121 0.161825
vt 0.382219 0.940542
vt 0.356283 0.867685
vt 0.425417 0.889949
vt 0.908877 0.246282
vt 0.872146 0.284555
vt 0.698648 0.210225
vt 0.453705 0.657952
vt 0.559777 0.613601
vt 0.535802 0.733519
vt 0.716841 0.794522
vt 0.822920 0.891110
vt 0.716841 0.965494
vt 0.501135 0.777412
vt 0.486097 0.777412
vt 0.019933 0.480960
vt 0.069392 0.548129
vt -0.000000 0.527322
vt 0.486097 0.946851
vt 0.645967 0.628572
vt 0.094734 0.597096
vt 0.026854 0.656191
vt 0.704935 0.666362
vt 0.617996 0.716269
vt 0.165935 0.746439
vt -0.000000 0.823212
vt 0.267413 0.526123
vt 0.331126 0.449157
vt 0.331126 0.574934
vt 0.693933 0.595290
vt 0.738065 0.739715
vt 0.920307 0.746039
vt 0.909800 0.794522
vt 0.358153 0.279293
vt 0.356283 0.128251
vt 0.409396 0.286547
vt 0.267413 0.574934
vt 0.322537 0.574934
vt 0.314360 0.693274
vt 0.356283 0.405056
vt 0.490715 0.406102
vt 0.435930 0.106739
vt 0.679222 0.513490
vt 0.500191 0.145811
vt 0.598024 0.340309
vt 0.975016 0.728884
vt 0.956842 0.784990
vt 0.602883 0.415167
vt 0.549302 0.000000
vt 0.596494 0.053160
vt 0.660627 0.241248
vt 0.680083 0.330859
vt 0.716841 0.444134
vt 0.660353 0.415167
vt 0.897534 0.461498
vt 0.975016 0.475575
vt 0.865834 0.559009
vt 0.959291 0.415167
vt 0.610942 0.483778
vt 0.006276 0.049986
vt 0.041417 0.000000
vt 0.087329 0.047804
vt 0.014582 0.094300
vt 0.148959 0.135796
vt 0.628113 0.855746
vt 0.668789 0.777412
vt 0.668789 0.927949
vt 0.169192 0.061985
vt 0.207497 0.143815
vt 0.226675 0.068932
vt 0.521376 0.424329
vt 0.270936 0.723649
vt 0.331127 0.693274
vt 0.267413 0.792372
vt 0.668789 0.869259
vt 0.711399 0.777412
vt 0.711399 0.920638
vt 0.331127 0.771207
vt 0.133766 0.402036
vt 0.161386 0.246026
vt 0.220132 0.371712
vt 0.264186 0.011417
vt 0.443983 0.415167
vt 0.285786 0.118492
vt 0.150765 0.449157
vt 0.338791 0.000000
vt 0.310759 0.302940
vt 0.946581 0.001049
vt 0.356283 0.281473
vt 0.681726 0.162254
vt 0.332972 0.331776
vt 0.946581 0.356497
vt 0.897169 0.372106
vt 0.778393 0.346759
vt 0.395699 0.696598
vt 0.075617 0.449157
vt 0.154747 0.473460
vt 0.010208 0.876622
vt 0.030668 0.859603
vt 0.267413 0.633954
vt 0.208570 0.695592
vt 0.255060 0.478486
vt 0.267283 0.761265
vt 0.716841 0.630276
vt 0.356283 0.505260
vt 0.797576 0.522684
vt 0.267413 0.888170
vt 0.326816 0.792372
vt 0.326816 0.892452
vt 0.681726 0.387397
vt 0.937645 0.579997
vt -0.000000 0.252176
vt 0.072479 0.243097
vt 0.641868 0.041609
vt 0.047435 0.150118
vt 0.628114 0.923001
vt 0.486097 0.923001
vt 0.626740 0.852174
vt 0.488450 0.777412
vt 0.452680 1.000000
s 0
f 1/1/1 2/2/1 4/3/1
f 2/4/2 3/5/2 4/6/2
f 10/7/3 7/8/3 53/9/3
f 3/10/4 8/11/4 6/12/4
f 15/13/5 9/14/5 18/15/5
f 13/16/6 14/17/6 6/12/6
f 6/12/7 14/17/7 9/18/7
f 12/19/8 11/20/8 20/21/8
f 14/22/9 19/23/9 9/24/9
f 12/19/10 20/21/10 16/25/10
f 9/14/11 19/26/11 18/15/11
f 16/27/12 21/28/12 17/29/12
f 19/26/13 22/30/13 18/15/13
f 11/20/14 10/7/14 29/31/14
f 21/28/15 24/32/15 19/33/15
f 29/31/16 27/34/16 23/35/16
f 24/32/17 25/36/17 22/37/17
f 26/38/18 28/39/18 31/40/18
f 29/31/19 32/41/19 27/34/19
f 25/42/20 37/43/20 30/44/20
f 28/45/21 27/46/21 33/47/21
f 28/48/22 33/49/22 31/50/22
f 31/51/23 33/47/23 36/52/23
f 27/46/24 32/53/24 33/47/24
f 29/31/25 10/7/25 42/54/25
f 33/47/26 32/53/26 35/55/26
f 33/47/27 35/55/27 38/56/27
f 37/43/28 59/57/28 34/58/28
f 33/47/29 38/56/29 36/52/29
f 38/56/30 39/59/30 36/52/30
f 42/60/31 40/61/31 35/55/31
f 35/55/32 40/61/32 38/56/32
f 38/56/33 40/61/33 51/62/33
f 38/56/34 51/62/34 43/63/34
f 40/64/35 42/54/35 47/65/35
f 39/66/36 45/67/36 41/68/36
f 44/69/37 45/67/37 39/66/37
f 42/54/38 10/7/38 49/70/38
f 43/71/39 51/72/39 48/73/39
f 44/74/40 48/73/40 50/75/40
f 48/76/41 51/77/41 52/78/41
f 49/70/42 10/7/42 53/9/42
f 52/79/43 58/80/43 50/75/43
f 52/79/44 55/81/44 58/80/44
f 47/65/45 49/70/45 54/82/45
f 52/83/46 54/84/46 55/85/46
f 54/86/47 49/87/47 57/88/47
f 54/84/48 57/89/48 55/85/48
f 59/90/49 56/91/49 15/92/49
f 57/93/50 2/4/50 55/81/50
f 57/94/51 53/9/51 7/8/51
f 55/81/52 2/4/52 1/95/52
f 34/96/53 59/90/53 15/92/53
f 57/93/54 7/97/54 3/5/54
f 57/93/55 3/5/55 2/4/55
f 15/92/56 4/6/56 5/98/56
f 3/10/57 7/99/57 8/11/57
f 4/6/58 3/5/58 6/100/58
f 5/98/59 4/6/59 6/100/59
f 10/7/60 11/20/60 7/8/60
f 5/101/61 6/12/61 9/18/61
f 15/92/62 5/98/62 9/102/62
f 8/11/63 13/16/63 6/12/63
f 7/8/64 11/20/64 12/19/64
f 14/17/65 16/103/65 17/104/65
f 22/30/66 15/13/66 18/15/66
f 14/17/67 17/104/67 19/105/67
f 13/106/68 12/19/68 16/25/68
f 37/43/69 41/68/69 59/57/69
f 17/29/70 21/28/70 19/33/70
f 20/107/71 23/108/71 16/27/71
f 11/20/72 29/31/72 20/21/72
f 19/33/73 24/32/73 22/37/73
f 16/27/74 23/108/74 21/28/74
f 34/109/75 22/37/75 30/110/75
f 20/21/76 29/31/76 23/35/76
f 22/37/77 25/36/77 30/110/77
f 21/28/78 23/108/78 24/32/78
f 23/108/79 28/111/79 24/32/79
f 25/36/80 24/32/80 26/112/80
f 23/108/81 27/113/81 28/111/81
f 26/112/82 24/32/82 28/111/82
f 26/112/83 31/114/83 25/36/83
f 25/42/84 31/115/84 37/43/84
f 12/19/85 8/116/85 7/8/85
f 34/58/86 30/44/86 37/43/86
f 31/115/87 36/117/87 37/43/87
f 29/118/88 42/119/88 32/120/88
f 32/53/89 42/60/89 35/55/89
f 36/117/90 39/66/90 41/68/90
f 1/95/91 58/80/91 55/81/91
f 38/56/92 43/63/92 44/121/92
f 38/56/93 44/121/93 39/59/93
f 41/68/94 45/67/94 46/122/94
f 41/123/95 46/124/95 59/90/95
f 51/62/96 40/61/96 47/125/96
f 44/74/97 43/71/97 48/73/97
f 47/65/98 42/54/98 49/70/98
f 46/124/99 56/91/99 59/90/99
f 45/126/100 44/74/100 50/75/100
f 46/124/101 45/126/101 50/75/101
f 50/75/102 48/73/102 52/79/102
f 46/124/103 50/75/103 56/91/103
f 52/127/104 51/128/104 54/129/104
f 51/128/105 47/130/105 54/129/105
f 50/75/106 58/80/106 56/91/106
f 58/80/107 4/6/107 56/91/107
f 57/94/108 49/70/108 53/9/108
f 15/92/109 56/91/109 4/6/109
f 14/17/110 13/16/110 16/103/110
f 22/30/111 34/131/111 15/13/111
f 37/43/112 36/117/112 41/68/112
f 12/19/113 13/106/113 8/116/113
f 1/95/114 4/6/114 58/80/114
